<mxfile host="app.diagrams.net" modified="2024-01-05T01:25:25.251Z" agent="Mozilla/5.0 (Macintosh; Intel Mac OS X 10_15_7) AppleWebKit/605.1.15 (KHTML, like Gecko) Version/17.0 Safari/605.1.15" etag="x752kSMeGtmUvzcg0Jk5" version="22.1.16" type="github">
  <diagram name="Page-1" id="MlF_dzwxMxhkYbkUneEa">
    <mxGraphModel dx="794" dy="550" grid="1" gridSize="10" guides="1" tooltips="1" connect="1" arrows="1" fold="1" page="1" pageScale="1" pageWidth="850" pageHeight="1100" background="#ffffff" math="0" shadow="0">
      <root>
        <mxCell id="0" />
        <mxCell id="1" parent="0" />
        <mxCell id="712ERAdk77Vl7Lxlt1qB-10" value="" style="swimlane;startSize=0;fillColor=#000000;strokeColor=default;strokeWidth=2;fontColor=#000000;" parent="1" vertex="1">
          <mxGeometry x="76" y="212" width="430" height="290" as="geometry" />
        </mxCell>
        <mxCell id="712ERAdk77Vl7Lxlt1qB-25" style="edgeStyle=orthogonalEdgeStyle;rounded=0;orthogonalLoop=1;jettySize=auto;html=1;strokeColor=default;fontColor=#000000;exitX=0.182;exitY=1.091;exitDx=0;exitDy=0;exitPerimeter=0;" parent="712ERAdk77Vl7Lxlt1qB-10" source="712ERAdk77Vl7Lxlt1qB-17" target="712ERAdk77Vl7Lxlt1qB-22" edge="1">
          <mxGeometry relative="1" as="geometry" />
        </mxCell>
        <mxCell id="712ERAdk77Vl7Lxlt1qB-26" style="edgeStyle=orthogonalEdgeStyle;rounded=0;orthogonalLoop=1;jettySize=auto;html=1;entryX=0;entryY=0.5;entryDx=0;entryDy=0;strokeColor=default;fontColor=#000000;" parent="712ERAdk77Vl7Lxlt1qB-10" source="712ERAdk77Vl7Lxlt1qB-12" target="712ERAdk77Vl7Lxlt1qB-17" edge="1">
          <mxGeometry relative="1" as="geometry" />
        </mxCell>
        <mxCell id="712ERAdk77Vl7Lxlt1qB-16" value="&lt;font&gt;&lt;b&gt;HOMOMORPHIC ENCRPTION&lt;/b&gt;&lt;br&gt;&lt;/font&gt;" style="text;html=1;align=center;verticalAlign=middle;resizable=0;points=[];autosize=1;strokeColor=none;fillColor=none;fontColor=#000000;" parent="712ERAdk77Vl7Lxlt1qB-10" vertex="1">
          <mxGeometry x="195" y="48.75" width="190" height="30" as="geometry" />
        </mxCell>
        <mxCell id="712ERAdk77Vl7Lxlt1qB-17" value="" style="rounded=1;whiteSpace=wrap;html=1;fillColor=none;strokeColor=default;strokeWidth=2;fontColor=#000000;" parent="712ERAdk77Vl7Lxlt1qB-10" vertex="1">
          <mxGeometry x="180" y="35" width="220" height="55" as="geometry" />
        </mxCell>
        <mxCell id="712ERAdk77Vl7Lxlt1qB-12" value="" style="shape=datastore;whiteSpace=wrap;html=1;fillColor=#000000;strokeColor=#FFFFFF;strokeWidth=2;fontColor=#000000;" parent="712ERAdk77Vl7Lxlt1qB-10" vertex="1">
          <mxGeometry x="45" y="60" width="60" height="61.224489795918366" as="geometry" />
        </mxCell>
        <mxCell id="712ERAdk77Vl7Lxlt1qB-13" value="&lt;div&gt;&lt;b&gt;DATASET&lt;/b&gt;&lt;/div&gt;" style="text;html=1;align=center;verticalAlign=middle;resizable=0;points=[];autosize=1;strokeColor=none;fillColor=none;fontColor=#000000;" parent="712ERAdk77Vl7Lxlt1qB-10" vertex="1">
          <mxGeometry x="35" y="129.3877551020408" width="80" height="30" as="geometry" />
        </mxCell>
        <mxCell id="9P9yUoY3Di7MT4rerMMI-18" value="" style="group" parent="712ERAdk77Vl7Lxlt1qB-10" vertex="1" connectable="0">
          <mxGeometry x="160" y="140" width="145" height="150" as="geometry" />
        </mxCell>
        <mxCell id="712ERAdk77Vl7Lxlt1qB-22" value="" style="whiteSpace=wrap;html=1;aspect=fixed;fillColor=none;strokeColor=default;strokeWidth=2;fontColor=#000000;" parent="9P9yUoY3Di7MT4rerMMI-18" vertex="1">
          <mxGeometry width="118.18181818181817" height="118.18181818181817" as="geometry" />
        </mxCell>
        <mxCell id="712ERAdk77Vl7Lxlt1qB-19" value="" style="group;fontColor=#000000;" parent="9P9yUoY3Di7MT4rerMMI-18" vertex="1" connectable="0">
          <mxGeometry x="18.412698412698404" y="18.181818181818187" width="126.58730158730158" height="131.8181818181818" as="geometry" />
        </mxCell>
        <mxCell id="712ERAdk77Vl7Lxlt1qB-20" value="" style="shape=datastore;whiteSpace=wrap;html=1;fillColor=#000000;strokeColor=#FFFFFF;strokeWidth=2;fontColor=#000000;" parent="712ERAdk77Vl7Lxlt1qB-19" vertex="1">
          <mxGeometry x="13.809523809523808" width="55.238095238095234" height="54.54545454545455" as="geometry" />
        </mxCell>
        <mxCell id="712ERAdk77Vl7Lxlt1qB-21" value="&lt;b&gt;ENCRYPTED&lt;/b&gt;&lt;div&gt;&lt;b&gt;DATASET&lt;/b&gt;&lt;/div&gt;" style="text;html=1;align=center;verticalAlign=middle;resizable=0;points=[];autosize=1;strokeColor=none;fillColor=none;fontColor=#000000;" parent="712ERAdk77Vl7Lxlt1qB-19" vertex="1">
          <mxGeometry x="-4.603174603174603" y="57.27272727272727" width="100" height="40" as="geometry" />
        </mxCell>
        <mxCell id="WExa6QN-3f2ECs_styrt-5" style="edgeStyle=orthogonalEdgeStyle;rounded=0;orthogonalLoop=1;jettySize=auto;html=1;entryX=0.5;entryY=1;entryDx=0;entryDy=0;strokeColor=#FFFFFF;fontColor=#000000;" parent="1" edge="1">
          <mxGeometry relative="1" as="geometry">
            <mxPoint x="829" y="500" as="targetPoint" />
            <mxPoint x="829" y="560" as="sourcePoint" />
          </mxGeometry>
        </mxCell>
        <mxCell id="712ERAdk77Vl7Lxlt1qB-40" value="" style="swimlane;startSize=0;fillColor=none;strokeColor=default;strokeWidth=2;fontColor=#000000;" parent="1" vertex="1">
          <mxGeometry x="76" y="562" width="430" height="290" as="geometry" />
        </mxCell>
        <mxCell id="712ERAdk77Vl7Lxlt1qB-54" value="&lt;b&gt;&lt;font&gt;POLICY DECISION POINT (PDP)&lt;/font&gt;&lt;br&gt;&lt;/b&gt;" style="rounded=1;whiteSpace=wrap;html=1;fillColor=none;strokeColor=default;strokeWidth=2;fontColor=#000000;" parent="712ERAdk77Vl7Lxlt1qB-40" vertex="1">
          <mxGeometry x="240" y="150" width="155" height="100" as="geometry" />
        </mxCell>
        <mxCell id="WExa6QN-3f2ECs_styrt-4" style="edgeStyle=orthogonalEdgeStyle;rounded=0;orthogonalLoop=1;jettySize=auto;html=1;strokeColor=default;fontColor=#000000;" parent="712ERAdk77Vl7Lxlt1qB-40" source="712ERAdk77Vl7Lxlt1qB-55" edge="1">
          <mxGeometry relative="1" as="geometry">
            <Array as="points">
              <mxPoint x="350" y="150" />
            </Array>
            <mxPoint x="350" y="150" as="targetPoint" />
          </mxGeometry>
        </mxCell>
        <mxCell id="712ERAdk77Vl7Lxlt1qB-55" value="&lt;b&gt;&lt;font&gt;POLICY INFORMATION POINT (PIP)&lt;/font&gt;&lt;br&gt;&lt;/b&gt;" style="rounded=1;whiteSpace=wrap;html=1;fillColor=none;strokeColor=default;strokeWidth=2;fontColor=#000000;" parent="712ERAdk77Vl7Lxlt1qB-40" vertex="1">
          <mxGeometry x="30" y="40" width="370" height="40" as="geometry" />
        </mxCell>
        <mxCell id="712ERAdk77Vl7Lxlt1qB-59" style="edgeStyle=orthogonalEdgeStyle;rounded=0;orthogonalLoop=1;jettySize=auto;html=1;exitX=0.25;exitY=0;exitDx=0;exitDy=0;entryX=0.673;entryY=1;entryDx=0;entryDy=0;entryPerimeter=0;strokeColor=default;fontColor=#000000;" parent="712ERAdk77Vl7Lxlt1qB-40" source="712ERAdk77Vl7Lxlt1qB-54" target="712ERAdk77Vl7Lxlt1qB-55" edge="1">
          <mxGeometry relative="1" as="geometry" />
        </mxCell>
        <mxCell id="9P9yUoY3Di7MT4rerMMI-2" style="edgeStyle=orthogonalEdgeStyle;rounded=0;orthogonalLoop=1;jettySize=auto;html=1;" parent="712ERAdk77Vl7Lxlt1qB-40" source="712ERAdk77Vl7Lxlt1qB-7" target="712ERAdk77Vl7Lxlt1qB-54" edge="1">
          <mxGeometry relative="1" as="geometry">
            <Array as="points">
              <mxPoint x="180" y="200" />
              <mxPoint x="180" y="200" />
            </Array>
          </mxGeometry>
        </mxCell>
        <mxCell id="712ERAdk77Vl7Lxlt1qB-7" value="" style="verticalLabelPosition=bottom;verticalAlign=top;html=1;shape=mxgraph.basic.layered_rect;dx=10;outlineConnect=0;whiteSpace=wrap;fillColor=#000000;strokeWidth=2;strokeColor=#FFFFFF;fontColor=#000000;" parent="712ERAdk77Vl7Lxlt1qB-40" vertex="1">
          <mxGeometry x="30" y="170" width="100" height="60" as="geometry" />
        </mxCell>
        <mxCell id="712ERAdk77Vl7Lxlt1qB-27" value="&lt;b&gt;&lt;font&gt;POLICIES&lt;/font&gt;&lt;/b&gt;" style="text;html=1;align=center;verticalAlign=middle;resizable=0;points=[];autosize=1;strokeColor=none;fillColor=none;fontColor=#000000;" parent="712ERAdk77Vl7Lxlt1qB-40" vertex="1">
          <mxGeometry x="40" y="240" width="80" height="30" as="geometry" />
        </mxCell>
        <mxCell id="712ERAdk77Vl7Lxlt1qB-57" style="edgeStyle=orthogonalEdgeStyle;rounded=0;orthogonalLoop=1;jettySize=auto;html=1;exitX=0.5;exitY=1;exitDx=0;exitDy=0;entryX=0.5;entryY=0;entryDx=0;entryDy=0;strokeColor=default;fontColor=#000000;" parent="1" source="712ERAdk77Vl7Lxlt1qB-22" target="712ERAdk77Vl7Lxlt1qB-55" edge="1">
          <mxGeometry relative="1" as="geometry">
            <Array as="points">
              <mxPoint x="291" y="470" />
            </Array>
          </mxGeometry>
        </mxCell>
        <mxCell id="9P9yUoY3Di7MT4rerMMI-7" style="edgeStyle=orthogonalEdgeStyle;rounded=0;orthogonalLoop=1;jettySize=auto;html=1;entryX=1;entryY=0.75;entryDx=0;entryDy=0;exitX=0.222;exitY=-0.039;exitDx=0;exitDy=0;exitPerimeter=0;" parent="1" source="9P9yUoY3Di7MT4rerMMI-5" target="712ERAdk77Vl7Lxlt1qB-54" edge="1">
          <mxGeometry relative="1" as="geometry">
            <Array as="points">
              <mxPoint x="695" y="787" />
            </Array>
          </mxGeometry>
        </mxCell>
        <mxCell id="9P9yUoY3Di7MT4rerMMI-9" value="&lt;b&gt;REQUEST&lt;/b&gt;" style="edgeLabel;html=1;align=center;verticalAlign=middle;resizable=0;points=[];" parent="9P9yUoY3Di7MT4rerMMI-7" vertex="1" connectable="0">
          <mxGeometry x="0.0491" y="3" relative="1" as="geometry">
            <mxPoint as="offset" />
          </mxGeometry>
        </mxCell>
        <mxCell id="9P9yUoY3Di7MT4rerMMI-12" style="edgeStyle=orthogonalEdgeStyle;rounded=0;orthogonalLoop=1;jettySize=auto;html=1;entryX=1;entryY=0.75;entryDx=0;entryDy=0;dashed=1;" parent="1" target="712ERAdk77Vl7Lxlt1qB-55" edge="1">
          <mxGeometry relative="1" as="geometry">
            <mxPoint x="694" y="632" as="sourcePoint" />
          </mxGeometry>
        </mxCell>
        <mxCell id="9P9yUoY3Di7MT4rerMMI-5" value="&lt;b&gt;&lt;font&gt;POLICY ENFORCEMENT POINT (PEP)&lt;/font&gt;&lt;br&gt;&lt;/b&gt;" style="rounded=1;whiteSpace=wrap;html=1;fillColor=none;strokeColor=default;strokeWidth=2;fontColor=#000000;rotation=-90;" parent="1" vertex="1">
          <mxGeometry x="584" y="668.25" width="297.5" height="70" as="geometry" />
        </mxCell>
        <mxCell id="9P9yUoY3Di7MT4rerMMI-6" style="edgeStyle=orthogonalEdgeStyle;rounded=0;orthogonalLoop=1;jettySize=auto;html=1;" parent="1" source="712ERAdk77Vl7Lxlt1qB-54" edge="1">
          <mxGeometry relative="1" as="geometry">
            <mxPoint x="694" y="742" as="targetPoint" />
            <Array as="points">
              <mxPoint x="691" y="742" />
            </Array>
          </mxGeometry>
        </mxCell>
        <mxCell id="9P9yUoY3Di7MT4rerMMI-8" value="&lt;b&gt;GRANT / DENY&lt;br&gt;&lt;/b&gt;" style="edgeLabel;html=1;align=center;verticalAlign=middle;resizable=0;points=[];" parent="9P9yUoY3Di7MT4rerMMI-6" vertex="1" connectable="0">
          <mxGeometry x="-0.0673" relative="1" as="geometry">
            <mxPoint as="offset" />
          </mxGeometry>
        </mxCell>
        <mxCell id="9P9yUoY3Di7MT4rerMMI-11" style="edgeStyle=orthogonalEdgeStyle;rounded=0;orthogonalLoop=1;jettySize=auto;html=1;dashed=1;" parent="1" source="712ERAdk77Vl7Lxlt1qB-55" edge="1">
          <mxGeometry relative="1" as="geometry">
            <mxPoint x="694" y="612" as="targetPoint" />
            <Array as="points">
              <mxPoint x="634" y="612" />
              <mxPoint x="634" y="612" />
            </Array>
          </mxGeometry>
        </mxCell>
        <mxCell id="9P9yUoY3Di7MT4rerMMI-13" value="&lt;div align=&quot;left&quot;&gt;&lt;blockquote&gt;&lt;blockquote&gt;&lt;div&gt;&lt;b&gt;&lt;font style=&quot;font-size: 14px;&quot;&gt;Process and Analyze&lt;/font&gt;&lt;/b&gt;&lt;br&gt;&lt;/div&gt;&lt;/blockquote&gt;&lt;/blockquote&gt;&lt;/div&gt;" style="rounded=1;whiteSpace=wrap;html=1;align=center;labelPosition=center;verticalLabelPosition=middle;verticalAlign=middle;" parent="1" vertex="1">
          <mxGeometry x="604" y="302" width="180" height="110" as="geometry" />
        </mxCell>
        <mxCell id="9P9yUoY3Di7MT4rerMMI-15" value="" style="sketch=0;pointerEvents=1;shadow=0;dashed=0;html=1;strokeColor=none;fillColor=#505050;labelPosition=center;verticalLabelPosition=bottom;verticalAlign=top;outlineConnect=0;align=center;shape=mxgraph.office.security.lock_protected;" parent="1" vertex="1">
          <mxGeometry x="340" y="325.22" width="26" height="38.78" as="geometry" />
        </mxCell>
        <mxCell id="9P9yUoY3Di7MT4rerMMI-20" value="" style="sketch=0;pointerEvents=1;shadow=0;dashed=0;html=1;strokeColor=none;fillColor=#505050;labelPosition=center;verticalLabelPosition=bottom;verticalAlign=top;outlineConnect=0;align=center;shape=mxgraph.office.concepts.search;" parent="1" vertex="1">
          <mxGeometry x="624" y="342.25" width="29" height="29.5" as="geometry" />
        </mxCell>
        <mxCell id="9P9yUoY3Di7MT4rerMMI-22" style="edgeStyle=orthogonalEdgeStyle;rounded=0;orthogonalLoop=1;jettySize=auto;html=1;entryX=0.715;entryY=1;entryDx=0;entryDy=0;entryPerimeter=0;" parent="1" source="9P9yUoY3Di7MT4rerMMI-5" target="9P9yUoY3Di7MT4rerMMI-13" edge="1">
          <mxGeometry relative="1" as="geometry" />
        </mxCell>
        <mxCell id="9P9yUoY3Di7MT4rerMMI-23" value="" style="swimlane;startSize=0;" parent="1" vertex="1">
          <mxGeometry x="30" y="140" width="790" height="780" as="geometry" />
        </mxCell>
      </root>
    </mxGraphModel>
  </diagram>
</mxfile>
